<svg width="1600" height="1100" viewBox="0 0 1600 1100" fill="none" xmlns="http://www.w3.org/2000/svg">
  <rect width="1600" height="1100" fill="#120D0C"/>
  <rect width="1600" height="1100" fill="url(#sky)"/>
  <circle cx="1208" cy="232" r="118" fill="#FFD6A7" fill-opacity="0.82"/>
  <path d="M0 630C198 586 352 592 520 566C714 536 900 438 1080 444C1268 450 1442 520 1600 600V1100H0V630Z" fill="#6E4330"/>
  <path d="M0 714C212 662 368 662 560 678C770 698 952 754 1140 742C1300 732 1450 682 1600 644V1100H0V714Z" fill="#8E583E"/>
  <path d="M0 830C166 766 362 756 584 790C818 826 990 890 1188 886C1360 882 1490 832 1600 786V1100H0V830Z" fill="#A6684A"/>
  <path d="M734 520H1008L1076 736H666L734 520Z" fill="#16191E"/>
  <path d="M772 468H970L1008 520H734L772 468Z" fill="#0D1117"/>
  <path d="M756 560H986V688H756V560Z" fill="#1D232B"/>
  <path d="M800 596H948V676H800V596Z" fill="#9BC4D2" fill-opacity="0.38"/>
  <path d="M998 552H1050V708H1018L998 552Z" fill="#11161D"/>
  <path d="M656 734H1086V764H656V734Z" fill="#221A17"/>
  <path d="M640 802C810 776 1012 774 1144 816V1100H592L640 802Z" fill="#5B382A"/>
  <defs>
    <linearGradient id="sky" x1="800" y1="0" x2="800" y2="690" gradientUnits="userSpaceOnUse">
      <stop stop-color="#F9E6D6"/>
      <stop offset="0.45" stop-color="#DFA57A"/>
      <stop offset="1" stop-color="#33201A"/>
    </linearGradient>
  </defs>
</svg>
